<svg xmlns="http://www.w3.org/2000/svg" xmlns:xlink="http://www.w3.org/1999/xlink" width="1307" height="138" viewBox="0 0 1307 138"><defs><path id="a" d="M-123-158h691.417v448H-123z"/></defs><clipPath id="b"><use xlink:href="#a" overflow="visible"/></clipPath><path clip-path="url(#b)" fill="#ffc107" d="M64.09 105.54L53.46 87.15l-25.52 44.12h21.85l14.59-25.23z"/><path clip-path="url(#b)" fill="#0f9d58" d="M41.96 67.27l11.5 19.88-25.52 44.12h-23z"/><g clip-path="url(#b)"><defs><path id="c" d="M-123-158h691.417v448H-123z"/></defs><clipPath id="d"><use xlink:href="#c" overflow="visible"/></clipPath><g opacity=".2" clip-path="url(#d)" enable-background="new"><defs><path id="e" d="M27.94 105.54h36.44v25.729H27.94z"/></defs><clipPath id="f"><use xlink:href="#e" overflow="visible"/></clipPath><path clip-path="url(#f)" fill="#bf360c" d="M49.79 130.27H28.52l-.58 1h21.85l14.59-25.23-.29-.5z"/></g><g opacity=".2" clip-path="url(#d)" enable-background="new"><defs><path id="g" d="M4.94 130.27h23.58v1H4.94z"/></defs><clipPath id="h"><use xlink:href="#g" overflow="visible"/></clipPath><path clip-path="url(#h)" fill="#263238" d="M5.52 130.27l-.58 1h23l.58-1z"/></g><g opacity=".2" clip-path="url(#d)" enable-background="new"><defs><path id="i" d="M4.94 67.27h37.31v64H4.94z"/></defs><clipPath id="j"><use xlink:href="#i" overflow="visible"/></clipPath><path clip-path="url(#j)" fill="#fff" d="M4.94 131.27h.58l36.73-63.5-.29-.5z"/></g></g><g clip-path="url(#b)"><defs><path id="k" d="M64.38 106.04L53.46 87.15l-2.68 4.63z"/></defs><clipPath id="m"><use xlink:href="#k" overflow="visible"/></clipPath><defs><filter id="l" filterUnits="userSpaceOnUse" x="50.78" y="87.15" width="13.6" height="18.89"><feColorMatrix values="1 0 0 0 0 0 1 0 0 0 0 0 1 0 0 0 0 0 1 0"/></filter></defs><mask maskUnits="userSpaceOnUse" x="50.78" y="87.15" width="13.6" height="18.89" id="o"><g filter="url(#l)"><radialGradient id="n" cx="-123.001" cy="289.998" r="1.087" gradientTransform="translate(5508.66 -12730.728) scale(44.2635)" gradientUnits="userSpaceOnUse"><stop offset="0" stop-color="#333"/><stop offset="1" stop-color="#050505"/></radialGradient><path clip-path="url(#m)" fill="url(#n)" d="M50.78 87.15h13.6v18.89h-13.6z"/></g></mask><radialGradient id="p" cx="-123" cy="290" r="1" gradientTransform="translate(5508.63 -12730.759) scale(44.2635)" gradientUnits="userSpaceOnUse"><stop offset="0" stop-color="#bf360c"/><stop offset="1" stop-color="#bf360c"/></radialGradient><path clip-path="url(#m)" mask="url(#o)" fill="url(#p)" d="M50.78 87.15h13.6v18.89h-13.6z"/></g><g clip-path="url(#b)"><defs><path id="q" d="M50.78 91.78l2.68-4.63-11.5-19.88-5.49 9.5z"/></defs><clipPath id="s"><use xlink:href="#q" overflow="visible"/></clipPath><defs><filter id="r" filterUnits="userSpaceOnUse" x="36.47" y="67.27" width="16.99" height="24.511"><feColorMatrix values="1 0 0 0 0 0 1 0 0 0 0 0 1 0 0 0 0 0 1 0"/></filter></defs><mask maskUnits="userSpaceOnUse" x="36.47" y="67.27" width="16.99" height="24.511" id="u"><g filter="url(#r)"><radialGradient id="t" cx="-123.001" cy="289.998" r=".998" gradientTransform="translate(5552.73 -12834.643) scale(44.6228)" gradientUnits="userSpaceOnUse"><stop offset="0" stop-color="#333"/><stop offset="1" stop-color="#050505"/></radialGradient><path clip-path="url(#s)" fill="url(#t)" d="M36.47 67.271h16.99v24.51H36.47z"/></g></mask><radialGradient id="v" cx="-123" cy="290" r="1" gradientTransform="translate(5552.698 -12834.674) scale(44.6228)" gradientUnits="userSpaceOnUse"><stop offset="0" stop-color="#263238"/><stop offset="1" stop-color="#263238"/></radialGradient><path clip-path="url(#s)" mask="url(#u)" fill="url(#v)" d="M36.47 67.27h16.99v24.511H36.47z"/></g><path clip-path="url(#b)" fill="#4285f4" d="M27.94 3.27h-23l59.44 102.77 11.49-19.87.01-.02z"/><g clip-path="url(#b)"><defs><path id="w" d="M-123-158h691.417v448H-123z"/></defs><clipPath id="x"><use xlink:href="#w" overflow="visible"/></clipPath><path d="M83.33 73.27c2.15-3.71 2.15-8.29 0-12l-33.54-58H27.94l47.94 82.88 7.45-12.88z" clip-path="url(#x)" fill="#db4437"/><g opacity=".2" clip-path="url(#x)" enable-background="new"><defs><path id="y" d="M4.94 3.27h70.94v102.77H4.94z"/></defs><clipPath id="z"><use xlink:href="#y" overflow="visible"/></clipPath><path clip-path="url(#z)" fill="#1a237e" d="M75.88 86.15l-.29-.49-11.21 19.38L5.52 3.27h-.58l59.44 102.77 11.49-19.87z"/></g><g opacity=".2" clip-path="url(#x)" enable-background="new"><defs><path id="A" d="M4.94 3.27h79.98v64.5H4.94z"/></defs><clipPath id="B"><use xlink:href="#A" overflow="visible"/></clipPath><path d="M49.79 4.27l33.54 58c.99 1.71 1.5 3.6 1.58 5.5.09-2.24-.42-4.5-1.58-6.5l-33.54-58H4.94l.58 1h44.27z" clip-path="url(#B)" fill="#fff"/></g><g opacity=".2" clip-path="url(#x)" enable-background="new"><defs><path id="C" d="M75.59 66.77h9.33v19.381h-9.33z"/></defs><clipPath id="D"><use xlink:href="#C" overflow="visible"/></clipPath><path d="M75.88 86.15l7.45-12.881c1.16-2 1.67-4.26 1.58-6.5-.08 1.9-.59 3.79-1.58 5.5L75.59 85.66l.29.49z" clip-path="url(#D)" fill="#3e2723"/></g></g><g clip-path="url(#b)"><defs><path id="E" d="M4.94 3.27l37.02 64-37.02 64h44.85l33.54-58c2.15-3.71 2.15-8.29 0-12l-33.54-58H4.94z"/></defs><clipPath id="G"><use xlink:href="#E" overflow="visible"/></clipPath><defs><filter id="F" filterUnits="userSpaceOnUse" x="4.94" y="3.27" width="80.54" height="128"><feColorMatrix values="1 0 0 0 0 0 1 0 0 0 0 0 1 0 0 0 0 0 1 0"/></filter></defs><mask maskUnits="userSpaceOnUse" x="4.94" y="3.27" width="80.54" height="128" id="I"><g filter="url(#F)"><radialGradient id="H" cx="-122.999" cy="290" r="1" gradientTransform="translate(16528.96 -38957.336) scale(134.3503)" gradientUnits="userSpaceOnUse"><stop offset="0" stop-color="#1a1a1a"/><stop offset="1"/></radialGradient><path clip-path="url(#G)" fill="url(#H)" d="M4.94 3.27h80.54v128H4.94z"/></g></mask><radialGradient id="J" cx="-122.999" cy="290" r="1" gradientTransform="translate(16528.96 -38957.336) scale(134.3503)" gradientUnits="userSpaceOnUse"><stop offset="0" stop-color="#fff"/><stop offset="1" stop-color="#fff"/></radialGradient><path clip-path="url(#G)" mask="url(#I)" fill="url(#J)" d="M4.94 3.27h80.54v128H4.94z"/></g><g clip-path="url(#b)"><defs><path id="K" d="M-123-158h691.417v448H-123z"/></defs><clipPath id="L"><use xlink:href="#K" overflow="visible"/></clipPath><g opacity=".54" clip-path="url(#L)"><defs><path id="M" d="M132.402 11.847h308.015v108.44H132.402z"/></defs><clipPath id="N"><use xlink:href="#M" overflow="visible"/></clipPath><path d="M247.397 14.447h30.6c31.16 0 50.72 20.68 50.72 49.7 0 29.15-19.569 49.7-50.72 49.7h-30.6v-99.4zm31.13 84.34c21.689 0 35.13-12.04 35.13-34.641 0-22.47-13.44-34.64-35.13-34.64h-16.07v69.28h16.07zM234.827 59.637h-47.67v14.76h33.61c-1.11 7.53-3.72 13.4-7.63 17.32-4.98 4.979-12.76 10.46-26.41 10.46-21.05 0-37.51-16.97-37.51-38.02 0-21.05 16.46-38.02 37.51-38.02 11.35 0 19.65 4.47 25.77 10.21l10.08-10.08c-8.55-8.17-19.9-14.42-35.85-14.42-28.83 0-53.07 23.47-53.07 52.31 0 28.83 24.24 52.31 53.07 52.31 15.56 0 27.3-5.1 36.49-14.67 9.44-9.44 12.38-22.71 12.38-33.43 0-3.32-.26-6.18-.77-8.73M439.646 59.637h-47.67v14.76h33.61c-1.11 7.53-3.72 13.4-7.63 17.32-4.98 4.979-12.76 10.46-26.41 10.46-21.05 0-37.51-16.97-37.51-38.02 0-21.05 16.46-38.02 37.51-38.02 11.35 0 19.65 4.47 25.771 10.21l10.079-10.08c-8.55-8.17-19.899-14.42-35.85-14.42-28.83 0-53.07 23.47-53.07 52.31 0 28.83 24.24 52.31 53.07 52.31 15.561 0 27.3-5.1 36.49-14.67 9.439-9.44 12.38-22.71 12.38-33.43.001-3.32-.259-6.18-.77-8.73" clip-path="url(#N)"/></g></g><g><path d="M571.974 16.408v.548l-36.441 42.059 38.908 54.937v.548H558.96l-31.921-45.758-15.07 17.398v28.36h-12.604V16.408h12.604v50.553h.548l43.155-50.553h16.302zM638.557 114.5h-12.056v-9.316h-.549c-1.918 3.199-4.842 5.915-8.768 8.152-3.928 2.236-8.083 3.356-12.467 3.356-8.404 0-14.774-2.557-19.111-7.673-4.34-5.113-6.508-11.963-6.508-20.549v-41.1h12.604v39.045c0 12.515 5.525 18.769 16.577 18.769 5.206 0 9.453-2.1 12.741-6.302 3.288-4.2 4.932-9.042 4.932-14.522V47.37h12.604v67.13zM674.451 116.692c-7.124 0-13.084-2.056-17.879-6.165-4.795-4.11-7.192-9.543-7.192-16.303 0-7.307 2.83-13.037 8.494-17.194 5.662-4.155 12.648-6.233 20.961-6.233 7.398 0 13.471 1.37 18.221 4.11v-1.919c0-4.932-1.69-8.881-5.068-11.85-3.381-2.967-7.535-4.453-12.468-4.453-3.653 0-6.965.869-9.932 2.603-2.97 1.736-5.001 4.11-6.097 7.124l-11.508-4.932c1.552-4.018 4.61-7.74 9.179-11.166 4.565-3.425 10.594-5.137 18.084-5.137 8.584 0 15.708 2.513 21.372 7.535 5.662 5.024 8.494 12.103 8.494 21.235V114.5h-12.057v-9.316h-.548c-5.023 7.672-12.376 11.508-22.056 11.508zm2.055-11.508c5.206 0 9.933-1.939 14.18-5.822 4.247-3.881 6.37-8.471 6.37-13.769-3.562-2.922-8.904-4.384-16.028-4.384-6.12 0-10.733 1.325-13.837 3.973-3.106 2.65-4.658 5.754-4.658 9.316 0 3.288 1.415 5.891 4.247 7.809 2.828 1.918 6.072 2.877 9.726 2.877zM735.964 114.5H723.36V16.408h12.604V114.5zM771.858 116.692c-7.124 0-13.084-2.056-17.879-6.165-4.795-4.11-7.192-9.543-7.192-16.303 0-7.307 2.83-13.037 8.494-17.194 5.662-4.155 12.648-6.233 20.961-6.233 7.398 0 13.471 1.37 18.221 4.11v-1.919c0-4.932-1.69-8.881-5.068-11.85-3.381-2.967-7.535-4.453-12.468-4.453-3.653 0-6.965.869-9.932 2.603-2.97 1.736-5.001 4.11-6.097 7.124L749.39 61.48c1.552-4.018 4.61-7.74 9.179-11.166 4.565-3.425 10.594-5.137 18.084-5.137 8.584 0 15.708 2.513 21.372 7.535 5.662 5.024 8.494 12.103 8.494 21.235V114.5h-12.057v-9.316h-.548c-5.022 7.672-12.376 11.508-22.056 11.508zm2.055-11.508c5.206 0 9.933-1.939 14.18-5.822 4.247-3.881 6.37-8.471 6.37-13.769-3.562-2.922-8.904-4.384-16.028-4.384-6.12 0-10.733 1.325-13.837 3.973-3.106 2.65-4.658 5.754-4.658 9.316 0 3.288 1.415 5.891 4.247 7.809 2.829 1.918 6.072 2.877 9.726 2.877zM853.097 114.5V16.408H865.7v86.035h42.471V114.5h-55.074zM976.669 114.5h-12.056v-9.316h-.549c-1.918 3.199-4.842 5.915-8.768 8.152-3.928 2.236-8.083 3.356-12.467 3.356-8.404 0-14.774-2.557-19.111-7.673-4.34-5.113-6.508-11.963-6.508-20.549v-41.1h12.604v39.045c0 12.515 5.525 18.769 16.577 18.769 5.206 0 9.453-2.1 12.741-6.302 3.288-4.2 4.932-9.042 4.932-14.522V47.37h12.604v67.13zM992.012 114.5V47.37h12.056v9.316h.549c1.918-3.196 4.863-5.913 8.836-8.151 3.974-2.237 7.923-3.356 11.851-3.356 10.412 0 17.489 4.294 21.235 12.878 5.479-8.584 13.289-12.878 23.427-12.878 7.946 0 13.927 2.534 17.947 7.604 4.018 5.069 6.027 11.942 6.027 20.619v41.1h-12.604V75.318c0-6.758-1.233-11.553-3.699-14.385-2.466-2.83-6.212-4.247-11.233-4.247-4.933 0-9.021 2.102-12.262 6.302-3.243 4.202-4.863 8.997-4.863 14.385V114.5h-12.604V75.318c0-6.758-1.233-11.553-3.699-14.385-2.466-2.83-6.212-4.247-11.233-4.247-4.933 0-9.021 2.102-12.262 6.302-3.243 4.202-4.863 8.997-4.863 14.385V114.5h-12.606zM1143.67 116.692c-5.116 0-9.706-1.097-13.769-3.288-4.065-2.192-7.103-4.932-9.111-8.221h-.548l.548 9.316v29.592h-12.604V47.37h12.056v9.316h.548c2.009-3.288 5.046-6.028 9.111-8.22 4.063-2.192 8.652-3.288 13.769-3.288 8.676 0 16.166 3.425 22.468 10.275s9.453 15.344 9.453 25.482-3.151 18.631-9.453 25.481c-6.302 6.851-13.792 10.276-22.468 10.276zm-2.056-11.508c5.844 0 10.868-2.213 15.07-6.645 4.2-4.429 6.302-10.296 6.302-17.604 0-7.307-2.102-13.174-6.302-17.605-4.202-4.429-9.227-6.645-15.07-6.645-5.938 0-10.983 2.192-15.139 6.576-4.156 4.384-6.233 10.275-6.233 17.673 0 7.397 2.077 13.289 6.233 17.672 4.156 4.386 9.202 6.578 15.139 6.578zM1245.323 114.5h-12.056v-9.316h-.549c-1.918 3.199-4.842 5.915-8.768 8.152-3.928 2.236-8.083 3.356-12.467 3.356-8.404 0-14.774-2.557-19.111-7.673-4.34-5.113-6.508-11.963-6.508-20.549v-41.1h12.604v39.045c0 12.515 5.525 18.769 16.577 18.769 5.206 0 9.453-2.1 12.741-6.302 3.288-4.2 4.932-9.042 4.932-14.522V47.37h12.604v67.13zM1273.271 114.5h-12.604V47.37h12.056v10.96h.549c1.277-3.652 3.904-6.666 7.877-9.042 3.974-2.374 7.831-3.562 11.577-3.562 3.743 0 6.895.548 9.452 1.644l-4.795 11.782c-1.644-.638-3.883-.959-6.713-.959-4.568 0-8.609 1.805-12.124 5.412-3.518 3.608-5.274 8.335-5.274 14.18V114.5z" opacity=".55"/></g></svg>