<svg xmlns="http://www.w3.org/2000/svg" id="Layer_4" width="300" height="59">
  <style id="style4242">
    .st0{fill:#FFFFFF;}
  </style>
  <g id="layer1" fill="#fff">
    <path id="XMLID_2_" d="M76.955549 16.75075c0 3.04471-.893857 5.50282-2.709506 7.29053-2.067045 2.15085-4.748618 3.24023-8.044718 3.24023-3.156434 0-5.838007-1.08938-8.044718-3.2961-2.206711-2.17877-3.324032-4.91621-3.324032-8.12851s1.117321-5.94974 3.324032-8.12852c2.206711-2.17878 4.888284-3.2961 8.044718-3.2961 1.564251 0 3.072636.30726 4.497221.92179 1.424586.61453 2.569841 1.42459 3.407832 2.45811l-1.92738 1.92738c-1.452519-1.73185-3.435765-2.59777-5.977673-2.59777-2.29051 0-4.301689.81005-5.977672 2.43017-1.675983 1.62012-2.513974 3.7151-2.513974 6.31287s.837991 4.69275 2.513974 6.31287 3.659229 2.43017 5.977672 2.43017c2.458109 0 4.469288-.81005 6.117338-2.4581 1.061456-1.06146 1.675983-2.54191 1.843581-4.44136h-7.960919V15.1027h10.614559c.0838.5866.139665 1.11733.139665 1.64805z" class="st0"/>
    <path id="XMLID_4_" d="M79.720921 26.80665V4.93508h6.703932c3.351965 0 6.061471 1.00558 8.072651 3.0447 2.011179 2.03911 3.016769 4.66482 3.016769 7.90505 0 3.24023-1.00559 5.86594-3.016769 7.90505-2.01118 2.03912-4.692753 3.04471-8.072651 3.04471h-6.703932zm2.821238-2.68157h3.882694c2.513974 0 4.525153-.72626 6.005605-2.17878 1.480452-1.45252 2.206711-3.4637 2.206711-6.0894 0-2.59778-.726259-4.60896-2.206711-6.06147-1.480452-1.45252-3.491631-2.17878-6.005605-2.17878h-3.882694v16.50843z" class="st0"/>
    <path id="XMLID_8_" d="M121.3691 16.75075c0 3.04471-.89386 5.50282-2.70951 7.29053-2.06704 2.15085-4.74862 3.24023-8.04472 3.24023-3.15643 0-5.838-1.08938-8.04472-3.2961-2.20671-2.17877-3.324028-4.91621-3.324028-8.12851s1.117318-5.94974 3.324028-8.12852c2.20672-2.17878 4.88829-3.2961 8.04472-3.2961 1.56425 0 3.07264.30726 4.49722.92179 1.42459.61453 2.56984 1.42459 3.40784 2.45811l-1.92738 1.92738c-1.45252-1.73185-3.43577-2.59777-5.97768-2.59777-2.29051 0-4.30169.81005-5.97767 2.43017s-2.51397 3.7151-2.51397 6.31287.83799 4.69275 2.51397 6.31287 3.65923 2.43017 5.97767 2.43017c2.45811 0 4.46929-.81005 6.11734-2.4581 1.06146-1.06146 1.67598-2.54191 1.84358-4.44136h-7.96092V15.1027h10.61456c.0838.5866.13967 1.11733.13967 1.64805z" class="st0"/>
    <path id="XMLID_10_" d="M131.50879 26.80665V4.93508h6.70393c3.35197 0 6.06148 1.00558 8.07266 3.0447 2.01118 2.03911 3.01677 4.66482 3.01677 7.90505 0 3.24023-1.00559 5.86594-3.01677 7.90505-2.01118 2.03912-4.69276 3.04471-8.07266 3.04471h-6.70393zm2.82124-2.68157h3.88269c2.51398 0 4.52516-.72626 6.00561-2.17878 1.48045-1.45252 2.20671-3.4637 2.20671-6.0894 0-2.59778-.72626-4.60896-2.20671-6.06147-1.48045-1.45252-3.49163-2.17878-6.00561-2.17878h-3.88269v16.50843z" class="st0"/>
    <path id="XMLID_13_" d="M158.49212 27.30945c-2.26258 0-4.10616-.7542-5.50281-2.26258-1.42459-1.50838-2.12291-3.40783-2.12291-5.72627 0-2.17878.69832-4.0503 2.06704-5.61455 1.36872-1.56425 3.1285-2.34637 5.27935-2.34637 2.20671 0 3.99442.72626 5.33521 2.17877 1.34079 1.45252 2.01118 3.3799 2.01118 5.81008l-.0279.53073H153.7156c.0838 1.50838.58659 2.7095 1.50838 3.57543.92179.86592 2.01118 1.31285 3.24024 1.31285 2.01117 0 3.37989-.86592 4.10615-2.56984l2.51398 1.03352c-.5028 1.17319-1.28492 2.12291-2.40224 2.90504-1.17319.78212-2.54191 1.17319-4.18996 1.17319zm4.05029-9.77657c-.0559-.86592-.44693-1.67598-1.17319-2.45811-.72626-.78212-1.78771-1.17319-3.2123-1.17319-1.03352 0-1.92738.3352-2.7095.97766-.7542.64246-1.28492 1.53632-1.56425 2.62571h8.65924z" class="st0"/>
    <path id="XMLID_16_" d="M171.42512 26.80665l-6.06147-14.97211h3.07263l4.41343 11.62015h.0559l4.46929-11.62015h2.98884l-6.11734 14.97211h-2.82124z" class="st0"/>
    <path id="XMLID_18_" d="M184.80505 26.80665h-2.82124V4.93508h12.76541v2.68157h-9.9721v7.17879h8.99444v2.62571h-8.99444v9.3855z" class="st0"/>
    <path id="XMLID_20_" d="M203.2688 27.30945c-2.26258 0-4.10616-.7542-5.50282-2.26258-1.42458-1.50838-2.12291-3.40783-2.12291-5.72627 0-2.17878.69833-4.0503 2.06705-5.61455 1.36872-1.56425 3.1285-2.34637 5.27934-2.34637 2.20672 0 3.99443.72626 5.33522 2.17877 1.34078 1.45252 2.01118 3.3799 2.01118 5.81008l-.0279.53073h-11.81568c.0838 1.50838.5866 2.7095 1.50839 3.57543.92179.86592 2.01118 1.31285 3.24023 1.31285 2.01118 0 3.3799-.86592 4.10616-2.56984l2.51397 1.03352c-.50279 1.17319-1.28492 2.12291-2.40224 2.90504-1.20112.78212-2.56984 1.17319-4.18995 1.17319zm4.02235-9.77657c-.0559-.86592-.44692-1.67598-1.17318-2.45811-.72626-.78212-1.78772-1.17319-3.2123-1.17319-1.03353 0-1.92738.3352-2.70951.97766-.75419.64246-1.28492 1.53632-1.56425 2.62571h8.65924z" class="st0"/>
    <path id="XMLID_27_" d="M217.73811 27.30945c-1.67598 0-3.0447-.419-4.13409-1.22906-1.08939-.81006-1.89944-1.84358-2.40224-3.0447l2.51398-1.03352c.78212 1.87151 2.15084 2.82124 4.05029 2.82124.86592 0 1.59218-.19554 2.15084-.5866.55866-.39106.83799-.89386.83799-1.53632 0-.97765-.67039-1.64805-2.03911-1.98324l-3.01677-.72626c-.94972-.2514-1.87151-.69833-2.7095-1.39665-.86593-.6704-1.28492-1.59219-1.28492-2.76538 0-1.31285.58659-2.40224 1.75978-3.2123 1.17319-.83799 2.56984-1.22905 4.16202-1.22905 1.31286 0 2.51398.30726 3.5475.89386 1.03352.61452 1.78771 1.45252 2.23464 2.56984l-2.45811 1.00559c-.55866-1.31286-1.70391-1.98325-3.40783-1.98325-.83799 0-1.53631.1676-2.09498.53073-.55866.3352-.86592.81006-.86592 1.39665 0 .86593.67039 1.42459 1.98325 1.73185l2.9609.69833c1.39665.33519 2.45811.89385 3.1285 1.67598.67039.78212 1.00559 1.70392 1.00559 2.68157 0 1.34079-.55866 2.45811-1.64805 3.35197-1.11732.92179-2.54191 1.36872-4.27376 1.36872z" class="st0"/>
    <path id="XMLID_29_" d="M232.0957 27.05805c-1.56425 0-2.76537-.419-3.60336-1.25699s-1.22906-2.01118-1.22906-3.54749v-7.84919h-2.6257v-2.56984h2.6257V7.25352h2.82124v4.58102h3.65923v2.56984h-3.65923v7.62572c0 1.62012.6704 2.45811 2.01118 2.45811.5028 0 .94973-.0838 1.28492-.2514l.97766 2.40224c-.61453.27933-1.36872.419-2.26258.419z" class="st0"/>
    <g id="XMLID_261_">
      <path id="XMLID_259_" d="M9.02237483 2.28144H0l25.78220423 44.6928784 4.52515393-7.82125372z" class="st0"/>
      <path id="XMLID_258_" d="M33.77105624 27.7005146L19.07827247 2.28144H10.0838307l20.7542554 35.9777671 2.93297014-5.0838149c.47486183-.78212538.78212537-1.73184904.78212537-2.7374388-.027933-1.00558977-.3072635-1.9273804-.7821253-2.7374388z" class="st0"/>
      <path id="XMLID_257_" d="M15.7263066 31.359744L.25139743 58.147538h9.02237483L20.2514605 39.15306468z" class="st0"/>
      <path id="XMLID_256_" d="M20.7542554 40.0748553L10.33522814 58.147538h8.99444178l5.94973945-10.27936203z" class="st0"/>
    </g>
    <g id="flowRoot3404" style="line-height:125%" font-size="107.5" font-family="Product Sans" letter-spacing="0" word-spacing="0">
      <path id="path3444" d="M71.7175571 33.01388v.12011212l-7.98745536 9.2186045 8.52795986 12.0412391v.1201121h-3.39316713l-6.99653045-10.02936124-3.30308304 3.8135595v6.21580174h-2.76257855V33.01388h2.76257855v11.08034222h.1201121L68.1442246 33.01388h3.5733325z" style="-inkscape-font-specification:'Product Sans'"/>
      <path id="path3446" d="M86.29804164 54.51394782H83.6555752v-2.04190588h-.1201121q-.6305886 1.05098097-1.92179378 1.80168166-1.2912052.72067266-2.73255052.72067266-2.76257854 0-4.20392387-1.68156955-1.4113173-1.6815695-1.4113173-4.5042041v-9.0084083h2.76257854v8.5579879q0 4.1138398 3.63339135 4.1138398 1.71159758 0 2.79260658-1.3812893t1.081009-3.1829709v-8.1075675h2.76257854v14.7137336z" style="-inkscape-font-specification:'Product Sans'"/>
      <path id="path3448" d="M94.16866982 54.99439626q-2.34218616 0-3.93367163-1.35126124-1.5614575-1.35126125-1.5614575-3.5733353 0-2.4022422 1.8617377-3.75350346 1.8617377-1.38128926 4.5942882-1.38128926 2.4322702 0 3.9937276.9008408v-.4203924q0-1.6215135-1.111037-2.5824104-1.1110371-.9909249-2.7325505-.9909249-1.2011211 0-2.192046.5705325-.9608969.5705325-1.3212332 1.56145743l-2.5223544-1.081009q.5104764-1.3212332 2.0118778-2.43227024 1.5014014-1.1410651 3.9636996-1.1410651 2.8226346 0 4.6843723 1.6515415 1.8617377 1.6515415 1.8617377 4.6543443v8.8882961h-2.6424664v-2.0419058h-.1201121q-1.6515415 2.5223543-4.8345125 2.5223543zm.4504204-2.52235432q1.7115976 0 3.09288686-1.26117716 1.4113173-1.2912052 1.4113173-3.0328308-1.17109308-.9608969-3.51327924-.9608969-2.01187785 0-3.0328308.87081282-1.02095293.8708128-1.02095293 2.04190588 0 1.081009.9308689 1.71159758t2.13199.63058858z" style="-inkscape-font-specification:'Product Sans'"/>
      <path id="path3450" d="M107.64281008 54.51394782h-2.76257855V33.01388h2.76257855v21.50006782z" style="-inkscape-font-specification:'Product Sans'"/>
      <path id="path3452" d="M115.45807216 54.99439626q-2.34218616 0-3.93367162-1.35126124-1.56145744-1.35126125-1.56145744-3.5733353 0-2.4022422 1.8617377-3.75350346 1.86173773-1.38128927 4.59428825-1.38128927 2.43227024 0 3.99372768.9008408v-.4203924q0-1.6215135-1.11103703-2.5824104-1.11103702-.9909249-2.7325505-.9909249-1.20112112 0-2.19204603.5705325-.9608969.5705325-1.32123322 1.5614574l-2.52235433-1.081009q.51047647-1.3212332 2.01187786-2.4322703 1.50140138-1.1410651 3.96369965-1.1410651 2.8226346 0 4.68437232 1.6515415 1.8617377 1.6515415 1.8617377 4.6543443v8.8882961h-2.64246642v-2.0419058h-.1201121q-1.65154153 2.5223543-4.83451247 2.5223543zm.45042042-2.52235432q1.71159757 0 3.09288685-1.26117716 1.4113173-1.2912052 1.4113173-3.0328308-1.17109308-.9608969-3.51327924-.9608969-2.0118779 0-3.0328308.87081282-1.020953.8708128-1.020953 2.04190588 0 1.081009.9308688 1.71159758t2.1319899.63058858z" style="-inkscape-font-specification:'Product Sans'"/>
      <path id="path3454" d="M133.2773602 54.51394782V33.01388h2.76257856v18.85760138h9.30868858v2.64246644H133.2773602z" style="-inkscape-font-specification:'Product Sans'"/>
      <path id="path3456" d="M160.37108813 54.51394782h-2.64246644v-2.04190588h-.1201122q-.6305886 1.05098097-1.9217938 1.80168166-1.2912052.72067266-2.7325505.72067266-2.7625786 0-4.2039239-1.68156955-1.4113173-1.6815695-1.4113173-4.5042041v-9.0084083h2.7625785v8.5579879q0 4.1138398 3.6333913 4.1138398 1.7115976 0 2.7926066-1.3812893t1.081009-3.1829709v-8.1075675h2.7625785v14.7137336z" style="-inkscape-font-specification:'Product Sans'"/>
      <path id="path3458" d="M163.7633167 54.51394782V39.80021426h2.64246644v2.04190588h.1201121q.6305886-1.05098097 1.92179378-1.77165363 1.32123322-.7507006 2.6124384-.7507006 3.42319516 0 4.6543443 2.8226346 1.80168166-2.8226346 5.13479273-2.8226346 2.6124384 0 3.93367163 1.6815696 1.3212332 1.6515415 1.3212332 4.5042042v9.0084083h-2.76257853v-8.588016q0-2.222074-.81075675-3.1529429-.81075675-.9308688-2.46229827-.9308688-1.6215135 0-2.7025225 1.3812893-1.05098096 1.3812893-1.05098096 3.152943v8.1375955h-2.76257854v-8.588016q0-2.222074-.81075675-3.1529429-.81075675-.9308688-2.46229827-.9308688-1.6215134 0-2.7025224 1.3812893-1.0509809 1.3812893-1.0509809 3.152943v8.1375955h-2.7625785z" style="-inkscape-font-specification:'Product Sans'"/>
      <path id="path3460" d="M196.99120643 54.99439626q-1.68156955 0-3.0328308-.72067266-1.32123322-.72067267-1.98184982-1.80168166h-.1201121l.1201121 2.04190588v6.48605398h-2.7625785V39.80021426h2.6424665v2.04190588h.1201121q.6606166-1.081009 1.9818499-1.80168166 1.3512613-.72067266 3.0328308-.72067266 2.8526627 0 4.9245966 2.25210207 2.0719339 2.252102 2.0719339 5.5852131 0 3.333111-2.0719339 5.5852131t-4.9245965 2.252102zm-.45042042-2.52235432q1.9217938 0 3.3030831-1.44134533 1.3812893-1.4713733 1.3812893-3.8736155t-1.3812892-3.8435875q-1.3812893-1.4713733-3.303083-1.4713733-1.9518218 0-3.333111 1.4413454-1.3512612 1.4413454-1.3512612 3.8736156t1.3512612 3.8736156q1.3812893 1.4413454 3.3331111 1.4413454z" style="-inkscape-font-specification:'Product Sans'"/>
      <path id="path3462" d="M219.2541733 54.51394782h-2.64246644v-2.04190588h-.1201121q-.6305886 1.05098097-1.92179378 1.80168166-1.2912052.72067266-2.73255052.72067266-2.76257854 0-4.20392387-1.68156955-1.4113173-1.6815695-1.4113173-4.5042041v-9.0084083h2.7625785v8.5579879q0 4.1138398 3.6333913 4.1138398 1.7115976 0 2.7926065-1.3812893 1.081009-1.3812892 1.081009-3.1829709v-8.1075675h2.7625785v14.7137336z" style="-inkscape-font-specification:'Product Sans'"/>
      <path id="path3464" d="M225.40898042 54.51394782h-2.76257855V39.80021426h2.64246644v2.4022422h.1201122q.4203924-1.2011211 1.7115976-1.9818498 1.3212333-.78072873 2.5523824-.78072873t2.0719339.36033633l-1.0509809 2.58241038q-.5405045-.2101962-1.4713733-.2101962-1.5014014 0-2.6724944 1.2011211-1.14106505 1.1710931-1.14106505 3.09288686v8.04751142z" style="-inkscape-font-specification:'Product Sans'"/>
      <path id="path3466" d="M252.79407238 54.51394782h-13.09222006v-2.76257855q5.88549342-5.91552145 7.53703494-7.7172031 1.47137336-1.65154153 1.98184983-2.4923263.5104764-.8708128.5104764-2.13198997 0-1.2912052-1.020953-2.2821301-1.020953-.99092492-2.7325505-.99092492-1.5614575 0-2.5223544.93086886-.9608969.90084083-1.2311492 1.9518218l-2.5223544-1.02095294q.5104765-1.6215135 2.13199-3.06285882 1.6215135-1.44134533 4.2039239-1.44134533 2.8526626 0 4.6843723 1.7416256 1.8317097 1.7416256 1.8317097 4.17389585 0 3.00280277-3.273055 6.42599792l-6.0056056 6.03563356h9.5188848v2.64246644z" style="-inkscape-font-specification:'Product Sans'"/>
      <path id="path3468" d="M269.65574847 51.9015094q-2.2821301 3.09288686-5.9755775 3.09288686t-5.9755775-3.09288685q-2.2821301-3.0928868-2.2821301-7.657147 0-4.5942882 2.2821301-7.657147 2.2821301-3.0928868 5.9755775-3.0928868t5.9755775 3.0928869q2.2821301 3.0628589 2.2821301 7.6571471 0 4.5642602-2.2821301 7.6571471zm-5.9755775.45042043q2.46229827 0 3.93367162-2.31215813 1.5014013-2.31215813 1.5014013-5.79540934 0-3.51327924-1.5014014-5.79540935-1.4713734-2.3121581-3.9336716-2.3121581-2.4923263 0-3.9636997 2.3121582-1.4713734 2.2821301-1.4713734 5.7954094 0 3.4832512 1.4713733 5.7954094 1.4713734 2.3121582 3.9636997 2.3121582z" style="-inkscape-font-specification:'Product Sans'"/>
      <path id="path3470" d="M281.9944522 54.51394782h-2.76257855V37.39797205l-3.99372768 1.7416256-1.05098097-2.34218616 6.03563356-2.8226346h1.77165364v20.5391709z" style="-inkscape-font-specification:'Product Sans'"/>
      <path id="path3472" d="M293.57400548 41.39169973q2.40224222 0 4.41412007 1.98184982 2.01187785 1.9518218 2.01187785 4.74442838 0 2.7325505-2.10196193 4.80448442-2.0719339 2.0719339-4.92459654 2.0719339-3.06285882 0-5.07473668-2.0719339-1.98184424-2.10196193-1.98184424-4.80448442 0-2.85266263 2.4022367-6.36594187l5.5852132-8.2577076 2.2220741 1.5314294-4.8945685 6.78633425.0600561.0600561q.7507007-.4804484 2.2821301-.4804484zm-.60056055 10.93020207q1.7416256 0 2.97277474-1.2011211 1.26117716-1.2011211 1.26117716-2.97277475 0-1.7416256-1.26117716-2.9427467-1.23114914-1.23114914-2.97277474-1.23114914t-3.00280277 1.2311492q-1.26117716 1.2011211-1.26117716 2.9427467 0 1.7716537 1.23114913 2.9727748 1.26117717 1.2011211 3.0328308 1.2011211z" style="-inkscape-font-specification:'Product Sans'"/>
    </g>
  </g>
</svg>
