<?xml version="1.0" encoding="UTF-8" standalone="no"?>
<svg
   xmlns:dc="http://purl.org/dc/elements/1.1/"
   xmlns:cc="http://creativecommons.org/ns#"
   xmlns:rdf="http://www.w3.org/1999/02/22-rdf-syntax-ns#"
   xmlns:svg="http://www.w3.org/2000/svg"
   xmlns="http://www.w3.org/2000/svg"
   xmlns:sodipodi="http://sodipodi.sourceforge.net/DTD/sodipodi-0.dtd"
   xmlns:inkscape="http://www.inkscape.org/namespaces/inkscape"
   id="Layer_4"
   viewBox="0 0 1074 200"
   version="1.1"
   inkscape:version="0.91 r13725"
   sodipodi:docname="logo-white.svg"
   width="1074"
   height="200">
  <metadata
     id="metadata4274">
    <rdf:RDF>
      <cc:Work
         rdf:about="">
        <dc:format>image/svg+xml</dc:format>
        <dc:type
           rdf:resource="http://purl.org/dc/dcmitype/StillImage" />
        <dc:title></dc:title>
      </cc:Work>
    </rdf:RDF>
  </metadata>
  <defs
     id="defs4272" />
  <sodipodi:namedview
     pagecolor="#ffffff"
     bordercolor="#666666"
     borderopacity="1"
     objecttolerance="10"
     gridtolerance="10"
     guidetolerance="10"
     inkscape:pageopacity="0"
     inkscape:pageshadow="2"
     inkscape:window-width="1366"
     inkscape:window-height="744"
     id="namedview4270"
     showgrid="false"
     inkscape:zoom="0.40117143"
     inkscape:cx="446.51657"
     inkscape:cy="40.34758"
     inkscape:window-x="0"
     inkscape:window-y="24"
     inkscape:window-maximized="1"
     inkscape:current-layer="layer1" />
  <style
     id="style4242">.st0{fill:#FFFFFF;}</style>
  <g
     inkscape:groupmode="layer"
     id="layer1"
     inkscape:label="Layer 1">
    <path
       style="fill:#ffffff"
       inkscape:connector-curvature="0"
       d="m 275.5,51.8 c 0,10.9 -3.2,19.7 -9.7,26.1 -7.4,7.7 -17,11.6 -28.8,11.6 -11.3,0 -20.9,-3.9 -28.8,-11.8 -7.9,-7.8 -11.9,-17.6 -11.9,-29.1 0,-11.5 4,-21.3 11.9,-29.1 7.9,-7.8 17.5,-11.8 28.8,-11.8 5.6,0 11,1.1 16.1,3.3 5.1,2.2 9.2,5.1 12.2,8.8 l -6.9,6.9 c -5.2,-6.2 -12.3,-9.3 -21.4,-9.3 -8.2,0 -15.4,2.9 -21.4,8.7 -6,5.8 -9,13.3 -9,22.6 0,9.3 3,16.8 9,22.6 6,5.8 13.1,8.7 21.4,8.7 8.8,0 16,-2.9 21.9,-8.8 3.8,-3.8 6,-9.1 6.6,-15.9 l -28.5,0 0,-9.4 38,0 c 0.3,2.1 0.5,4 0.5,5.9 z"
       class="st0"
       id="XMLID_2_" />
    <path
       style="fill:#ffffff"
       inkscape:connector-curvature="0"
       d="m 285.4,87.8 0,-78.3 24,0 c 12,0 21.7,3.6 28.9,10.9 7.2,7.3 10.8,16.7 10.8,28.3 0,11.6 -3.6,21 -10.8,28.3 -7.2,7.3 -16.8,10.9 -28.9,10.9 l -24,0 z m 10.1,-9.6 13.9,0 c 9,0 16.2,-2.6 21.5,-7.8 5.3,-5.2 7.9,-12.4 7.9,-21.8 0,-9.3 -2.6,-16.5 -7.9,-21.7 -5.3,-5.2 -12.5,-7.8 -21.5,-7.8 l -13.9,0 0,59.1 z"
       class="st0"
       id="XMLID_4_" />
    <path
       style="fill:#ffffff"
       inkscape:connector-curvature="0"
       d="m 434.5,51.8 c 0,10.9 -3.2,19.7 -9.7,26.1 -7.4,7.7 -17,11.6 -28.8,11.6 -11.3,0 -20.9,-3.9 -28.8,-11.8 -7.9,-7.8 -11.9,-17.6 -11.9,-29.1 0,-11.5 4,-21.3 11.9,-29.1 7.9,-7.8 17.5,-11.8 28.8,-11.8 5.6,0 11,1.1 16.1,3.3 5.1,2.2 9.2,5.1 12.2,8.8 l -6.9,6.9 c -5.2,-6.2 -12.3,-9.3 -21.4,-9.3 -8.2,0 -15.4,2.9 -21.4,8.7 -6,5.8 -9,13.3 -9,22.6 0,9.3 3,16.8 9,22.6 6,5.8 13.1,8.7 21.4,8.7 8.8,0 16,-2.9 21.9,-8.8 3.8,-3.8 6,-9.1 6.6,-15.9 l -28.5,0 0,-9.4 38,0 c 0.3,2.1 0.5,4 0.5,5.9 z"
       class="st0"
       id="XMLID_8_" />
    <path
       style="fill:#ffffff"
       inkscape:connector-curvature="0"
       d="m 470.8,87.8 0,-78.3 24,0 c 12,0 21.7,3.6 28.9,10.9 7.2,7.3 10.8,16.7 10.8,28.3 0,11.6 -3.6,21 -10.8,28.3 -7.2,7.3 -16.8,10.9 -28.9,10.9 l -24,0 z m 10.1,-9.6 13.9,0 c 9,0 16.2,-2.6 21.5,-7.8 5.3,-5.2 7.9,-12.4 7.9,-21.8 0,-9.3 -2.6,-16.5 -7.9,-21.7 -5.3,-5.2 -12.5,-7.8 -21.5,-7.8 l -13.9,0 0,59.1 z"
       class="st0"
       id="XMLID_10_" />
    <path
       style="fill:#ffffff"
       inkscape:connector-curvature="0"
       d="m 567.4,89.6 c -8.1,0 -14.7,-2.7 -19.7,-8.1 -5.1,-5.4 -7.6,-12.2 -7.6,-20.5 0,-7.8 2.5,-14.5 7.4,-20.1 4.9,-5.6 11.2,-8.4 18.9,-8.4 7.9,0 14.3,2.6 19.1,7.8 4.8,5.2 7.2,12.1 7.2,20.8 l -0.1,1.9 -42.3,0 c 0.3,5.4 2.1,9.7 5.4,12.8 3.3,3.1 7.2,4.7 11.6,4.7 7.2,0 12.1,-3.1 14.7,-9.2 l 9,3.7 c -1.8,4.2 -4.6,7.6 -8.6,10.4 -4.2,2.8 -9.1,4.2 -15,4.2 z m 14.5,-35 c -0.2,-3.1 -1.6,-6 -4.2,-8.8 -2.6,-2.8 -6.4,-4.2 -11.5,-4.2 -3.7,0 -6.9,1.2 -9.7,3.5 -2.7,2.3 -4.6,5.5 -5.6,9.4 l 31,0 z"
       class="st0"
       id="XMLID_13_" />
    <path
       style="fill:#ffffff"
       inkscape:connector-curvature="0"
       d="M 613.7,87.8 592,34.2 l 11,0 15.8,41.6 0.2,0 16,-41.6 10.7,0 -21.9,53.6 -10.1,0 z"
       class="st0"
       id="XMLID_16_" />
    <path
       style="fill:#ffffff"
       inkscape:connector-curvature="0"
       d="m 661.6,87.8 -10.1,0 0,-78.3 45.7,0 0,9.6 -35.7,0 0,25.7 32.2,0 0,9.4 -32.2,0 0,33.6 z"
       class="st0"
       id="XMLID_18_" />
    <path
       style="fill:#ffffff"
       inkscape:connector-curvature="0"
       d="m 727.7,89.6 c -8.1,0 -14.7,-2.7 -19.7,-8.1 -5.1,-5.4 -7.6,-12.2 -7.6,-20.5 0,-7.8 2.5,-14.5 7.4,-20.1 4.9,-5.6 11.2,-8.4 18.9,-8.4 7.9,0 14.3,2.6 19.1,7.8 4.8,5.2 7.2,12.1 7.2,20.8 l -0.1,1.9 -42.3,0 c 0.3,5.4 2.1,9.7 5.4,12.8 3.3,3.1 7.2,4.7 11.6,4.7 7.2,0 12.1,-3.1 14.7,-9.2 l 9,3.7 c -1.8,4.2 -4.6,7.6 -8.6,10.4 -4.3,2.8 -9.2,4.2 -15,4.2 z m 14.4,-35 c -0.2,-3.1 -1.6,-6 -4.2,-8.8 -2.6,-2.8 -6.4,-4.2 -11.5,-4.2 -3.7,0 -6.9,1.2 -9.7,3.5 -2.7,2.3 -4.6,5.5 -5.6,9.4 l 31,0 z"
       class="st0"
       id="XMLID_20_" />
    <path
       style="fill:#ffffff"
       inkscape:connector-curvature="0"
       d="m 779.5,89.6 c -6,0 -10.9,-1.5 -14.8,-4.4 -3.9,-2.9 -6.8,-6.6 -8.6,-10.9 l 9,-3.7 c 2.8,6.7 7.7,10.1 14.5,10.1 3.1,0 5.7,-0.7 7.7,-2.1 2,-1.4 3,-3.2 3,-5.5 0,-3.5 -2.4,-5.9 -7.3,-7.1 l -10.8,-2.6 c -3.4,-0.9 -6.7,-2.5 -9.7,-5 -3.1,-2.4 -4.6,-5.7 -4.6,-9.9 0,-4.7 2.1,-8.6 6.3,-11.5 4.2,-3 9.2,-4.4 14.9,-4.4 4.7,0 9,1.1 12.7,3.2 3.7,2.2 6.4,5.2 8,9.2 l -8.8,3.6 c -2,-4.7 -6.1,-7.1 -12.2,-7.1 -3,0 -5.5,0.6 -7.5,1.9 -2,1.2 -3.1,2.9 -3.1,5 0,3.1 2.4,5.1 7.1,6.2 l 10.6,2.5 c 5,1.2 8.8,3.2 11.2,6 2.4,2.8 3.6,6.1 3.6,9.6 0,4.8 -2,8.8 -5.9,12 -4,3.3 -9.1,4.9 -15.3,4.9 z"
       class="st0"
       id="XMLID_27_" />
    <path
       style="fill:#ffffff"
       inkscape:connector-curvature="0"
       d="m 830.9,88.7 c -5.6,0 -9.9,-1.5 -12.9,-4.5 -3,-3 -4.4,-7.2 -4.4,-12.7 l 0,-28.1 -9.4,0 0,-9.2 9.4,0 0,-16.4 10.1,0 0,16.4 13.1,0 0,9.2 -13.1,0 0,27.3 c 0,5.8 2.4,8.8 7.2,8.8 1.8,0 3.4,-0.3 4.6,-0.9 l 3.5,8.6 c -2.2,1 -4.9,1.5 -8.1,1.5 z"
       class="st0"
       id="XMLID_29_" />
    <g
       id="XMLID_261_">
      <path
         id="XMLID_259_"
         class="st0"
         d="M 32.3,0 0,0 92.3,160 108.5,132 Z"
         inkscape:connector-curvature="0"
         style="fill:#ffffff" />
      <path
         id="XMLID_258_"
         class="st0"
         d="M 120.9,91 68.3,0 36.1,0 l 74.3,128.8 10.5,-18.2 c 1.7,-2.8 2.8,-6.2 2.8,-9.8 -0.1,-3.6 -1.1,-6.9 -2.8,-9.8 z"
         inkscape:connector-curvature="0"
         style="fill:#ffffff" />
      <path
         id="XMLID_257_"
         class="st0"
         d="M 56.3,104.1 0.9,200 l 32.3,0 39.3,-68 z"
         inkscape:connector-curvature="0"
         style="fill:#ffffff" />
      <path
         id="XMLID_256_"
         class="st0"
         d="M 74.3,135.3 37,200 l 32.2,0 21.3,-36.8 z"
         inkscape:connector-curvature="0"
         style="fill:#ffffff" />
    </g>
    <g
       transform="translate(23.704925,-140.50649)"
       style="font-style:normal;font-weight:normal;font-size:100px;line-height:125%;font-family:sans-serif;letter-spacing:0px;word-spacing:0px;fill:#ffffff;fill-opacity:1;stroke:none;stroke-width:1px;stroke-linecap:butt;stroke-linejoin:miter;stroke-opacity:1"
       id="flowRoot3404">
      <path
         inkscape:connector-curvature="0"
         d="m 233.04312,250.52829 0,0.43 -28.595,33.0025 30.53,43.1075 0,0.43 -12.1475,0 -25.0475,-35.905 -11.825,13.6525 0,22.2525 -9.89,0 0,-76.97 9.89,0 0,39.6675 0.43,0 33.86251,-39.6675 12.79249,0 z"
         style="font-style:normal;font-variant:normal;font-weight:normal;font-stretch:normal;font-size:107.5px;font-family:'Product Sans';-inkscape-font-specification:'Product Sans';fill:#ffffff;fill-opacity:1"
         id="path3444" />
      <path
         inkscape:connector-curvature="0"
         d="m 285.24109,327.49829 -9.46,0 0,-7.31 -0.43,0 q -2.2575,3.7625 -6.88,6.45 -4.6225,2.58 -9.7825,2.58 -9.89,0 -15.05,-6.02 -5.0525,-6.02 -5.0525,-16.125 l 0,-32.25 9.89,0 0,30.6375 q 0,14.7275 13.0075,14.7275 6.1275,0 9.9975,-4.945 3.87,-4.945 3.87,-11.395 l 0,-29.025 9.89,0 0,52.675 z"
         style="font-style:normal;font-variant:normal;font-weight:normal;font-stretch:normal;font-size:107.5px;font-family:'Product Sans';-inkscape-font-specification:'Product Sans';fill:#ffffff;fill-opacity:1"
         id="path3446" />
      <path
         inkscape:connector-curvature="0"
         d="m 313.41785,329.21829 q -8.385,0 -14.0825,-4.8375 -5.59,-4.8375 -5.59,-12.7925 0,-8.6 6.665,-13.4375 6.665,-4.945 16.4475,-4.945 8.7075,0 14.2975,3.225 l 0,-1.505 q 0,-5.805 -3.9775,-9.245 -3.9775,-3.5475 -9.7825,-3.5475 -4.3,0 -7.8475,2.0425 -3.44,2.0425 -4.73,5.59 l -9.03,-3.87 q 1.8275,-4.73 7.2025,-8.7075 5.375,-4.085 14.19,-4.085 10.105,0 16.77,5.9125 6.665,5.9125 6.665,16.6625 l 0,31.82 -9.46,0 0,-7.31 -0.43,0 q -5.9125,9.03 -17.3075,9.03 z m 1.6125,-9.03 q 6.1275,0 11.0725,-4.515 5.0525,-4.6225 5.0525,-10.8575 -4.1925,-3.44 -12.5775,-3.44 -7.2025,0 -10.8575,3.1175 -3.655,3.1175 -3.655,7.31 0,3.87 3.3325,6.1275 3.3325,2.2575 7.6325,2.2575 z"
         style="font-style:normal;font-variant:normal;font-weight:normal;font-stretch:normal;font-size:107.5px;font-family:'Product Sans';-inkscape-font-specification:'Product Sans';fill:#ffffff;fill-opacity:1"
         id="path3448" />
      <path
         inkscape:connector-curvature="0"
         d="m 361.65512,327.49829 -9.89,0 0,-76.97 9.89,0 0,76.97 z"
         style="font-style:normal;font-variant:normal;font-weight:normal;font-stretch:normal;font-size:107.5px;font-family:'Product Sans';-inkscape-font-specification:'Product Sans';fill:#ffffff;fill-opacity:1"
         id="path3450" />
      <path
         inkscape:connector-curvature="0"
         d="m 389.63367,329.21829 q -8.385,0 -14.0825,-4.8375 -5.59,-4.8375 -5.59,-12.7925 0,-8.6 6.665,-13.4375 6.665,-4.945 16.4475,-4.945 8.7075,0 14.2975,3.225 l 0,-1.505 q 0,-5.805 -3.9775,-9.245 -3.9775,-3.5475 -9.7825,-3.5475 -4.3,0 -7.8475,2.0425 -3.44,2.0425 -4.73,5.59 l -9.03,-3.87 q 1.8275,-4.73 7.2025,-8.7075 5.375,-4.085 14.19,-4.085 10.105,0 16.77,5.9125 6.665,5.9125 6.665,16.6625 l 0,31.82 -9.46,0 0,-7.31 -0.43,0 q -5.9125,9.03 -17.3075,9.03 z m 1.6125,-9.03 q 6.1275,0 11.0725,-4.515 5.0525,-4.6225 5.0525,-10.8575 -4.1925,-3.44 -12.5775,-3.44 -7.2025,0 -10.8575,3.1175 -3.655,3.1175 -3.655,7.31 0,3.87 3.3325,6.1275 3.3325,2.2575 7.6325,2.2575 z"
         style="font-style:normal;font-variant:normal;font-weight:normal;font-stretch:normal;font-size:107.5px;font-family:'Product Sans';-inkscape-font-specification:'Product Sans';fill:#ffffff;fill-opacity:1"
         id="path3452" />
      <path
         inkscape:connector-curvature="0"
         d="m 453.42652,327.49829 0,-76.97 9.89,0 0,67.51 33.325,0 0,9.46 -43.215,0 z"
         style="font-style:normal;font-variant:normal;font-weight:normal;font-stretch:normal;font-size:107.5px;font-family:'Product Sans';-inkscape-font-specification:'Product Sans';fill:#ffffff;fill-opacity:1"
         id="path3454" />
      <path
         inkscape:connector-curvature="0"
         d="m 550.42176,327.49829 -9.46,0 0,-7.31 -0.43,0 q -2.2575,3.7625 -6.88,6.45 -4.6225,2.58 -9.7825,2.58 -9.89,0 -15.05,-6.02 -5.0525,-6.02 -5.0525,-16.125 l 0,-32.25 9.89,0 0,30.6375 q 0,14.7275 13.0075,14.7275 6.1275,0 9.9975,-4.945 3.87,-4.945 3.87,-11.395 l 0,-29.025 9.89,0 0,52.675 z"
         style="font-style:normal;font-variant:normal;font-weight:normal;font-stretch:normal;font-size:107.5px;font-family:'Product Sans';-inkscape-font-specification:'Product Sans';fill:#ffffff;fill-opacity:1"
         id="path3456" />
      <path
         inkscape:connector-curvature="0"
         d="m 562.5659,327.49829 0,-52.675 9.46,0 0,7.31 0.43,0 q 2.2575,-3.7625 6.88,-6.3425 4.73,-2.6875 9.3525,-2.6875 12.255,0 16.6625,10.105 6.45,-10.105 18.3825,-10.105 9.3525,0 14.0825,6.02 4.73,5.9125 4.73,16.125 l 0,32.25 -9.89,0 0,-30.745 q 0,-7.955 -2.9025,-11.2875 -2.9025,-3.3325 -8.815,-3.3325 -5.805,0 -9.675,4.945 -3.7625,4.945 -3.7625,11.2875 l 0,29.1325 -9.89,0 0,-30.745 q 0,-7.955 -2.9025,-11.2875 -2.9025,-3.3325 -8.815,-3.3325 -5.805,0 -9.675,4.945 -3.7625,4.945 -3.7625,11.2875 l 0,29.1325 -9.89,0 z"
         style="font-style:normal;font-variant:normal;font-weight:normal;font-stretch:normal;font-size:107.5px;font-family:'Product Sans';-inkscape-font-specification:'Product Sans';fill:#ffffff;fill-opacity:1"
         id="path3458" />
      <path
         inkscape:connector-curvature="0"
         d="m 681.52137,329.21829 q -6.02,0 -10.8575,-2.58 -4.73,-2.58 -7.095,-6.45 l -0.43,0 0.43,7.31 0,23.22 -9.89,0 0,-75.895 9.46,0 0,7.31 0.43,0 q 2.365,-3.87 7.095,-6.45 4.8375,-2.58 10.8575,-2.58 10.2125,0 17.63,8.0625 7.4175,8.0625 7.4175,19.995 0,11.9325 -7.4175,19.995 -7.4175,8.0625 -17.63,8.0625 z m -1.6125,-9.03 q 6.88,0 11.825,-5.16 4.945,-5.2675 4.945,-13.8675 0,-8.6 -4.945,-13.76 -4.945,-5.2675 -11.825,-5.2675 -6.9875,0 -11.9325,5.16 -4.8375,5.16 -4.8375,13.8675 0,8.7075 4.8375,13.8675 4.945,5.16 11.9325,5.16 z"
         style="font-style:normal;font-variant:normal;font-weight:normal;font-stretch:normal;font-size:107.5px;font-family:'Product Sans';-inkscape-font-specification:'Product Sans';fill:#ffffff;fill-opacity:1"
         id="path3460" />
      <path
         inkscape:connector-curvature="0"
         d="m 761.22254,327.49829 -9.46,0 0,-7.31 -0.43,0 q -2.2575,3.7625 -6.88,6.45 -4.6225,2.58 -9.7825,2.58 -9.89,0 -15.05,-6.02 -5.0525,-6.02 -5.0525,-16.125 l 0,-32.25 9.89,0 0,30.6375 q 0,14.7275 13.0075,14.7275 6.1275,0 9.9975,-4.945 3.87,-4.945 3.87,-11.395 l 0,-29.025 9.89,0 0,52.675 z"
         style="font-style:normal;font-variant:normal;font-weight:normal;font-stretch:normal;font-size:107.5px;font-family:'Product Sans';-inkscape-font-specification:'Product Sans';fill:#ffffff;fill-opacity:1"
         id="path3462" />
      <path
         inkscape:connector-curvature="0"
         d="m 783.25668,327.49829 -9.89,0 0,-52.675 9.46,0 0,8.6 0.43,0 q 1.505,-4.3 6.1275,-7.095 4.73,-2.795 9.1375,-2.795 4.4075,0 7.4175,1.29 l -3.7625,9.245 q -1.935,-0.7525 -5.2675,-0.7525 -5.375,0 -9.5675,4.3 -4.085,4.1925 -4.085,11.0725 l 0,28.81 z"
         style="font-style:normal;font-variant:normal;font-weight:normal;font-stretch:normal;font-size:107.5px;font-family:'Product Sans';-inkscape-font-specification:'Product Sans';fill:#ffffff;fill-opacity:1"
         id="path3464" />
      <path
         inkscape:connector-curvature="0"
         d="m 881.295,327.49829 -46.87,0 0,-9.89 q 21.07,-21.1775 26.9825,-27.6275 5.2675,-5.9125 7.095,-8.9225 1.8275,-3.1175 1.8275,-7.6325 0,-4.6225 -3.655,-8.17 -3.655,-3.5475 -9.7825,-3.5475 -5.59,0 -9.03,3.3325 -3.44,3.225 -4.4075,6.9875 l -9.03,-3.655 q 1.8275,-5.805 7.6325,-10.965 5.805,-5.16 15.05,-5.16 10.2125,0 16.77,6.235 6.5575,6.235 6.5575,14.9425 0,10.75 -11.7175,23.005 l -21.5,21.6075 34.0775,0 0,9.46 z"
         style="font-style:normal;font-variant:normal;font-weight:normal;font-stretch:normal;font-size:107.5px;font-family:'Product Sans';-inkscape-font-specification:'Product Sans';fill:#ffffff;fill-opacity:1"
         id="path3466" />
      <path
         inkscape:connector-curvature="0"
         d="m 941.65961,318.14579 q -8.17,11.0725 -21.3925,11.0725 -13.2225,0 -21.3925,-11.0725 -8.17,-11.0725 -8.17,-27.4125 0,-16.4475 8.17,-27.4125 8.17,-11.0725 21.3925,-11.0725 13.2225,0 21.3925,11.0725 8.17,10.965 8.17,27.4125 0,16.34 -8.17,27.4125 z m -21.3925,1.6125 q 8.815,0 14.0825,-8.2775 5.375,-8.2775 5.375,-20.7475 0,-12.5775 -5.375,-20.7475 -5.2675,-8.2775 -14.0825,-8.2775 -8.9225,0 -14.19,8.2775 -5.2675,8.17 -5.2675,20.7475 0,12.47 5.2675,20.7475 5.2675,8.2775 14.19,8.2775 z"
         style="font-style:normal;font-variant:normal;font-weight:normal;font-stretch:normal;font-size:107.5px;font-family:'Product Sans';-inkscape-font-specification:'Product Sans';fill:#ffffff;fill-opacity:1"
         id="path3468" />
      <path
         inkscape:connector-curvature="0"
         d="m 985.83203,327.49829 -9.89,0 0,-61.275 -14.2975,6.235 -3.7625,-8.385 21.6075,-10.105 6.3425,0 0,73.53 z"
         style="font-style:normal;font-variant:normal;font-weight:normal;font-stretch:normal;font-size:107.5px;font-family:'Product Sans';-inkscape-font-specification:'Product Sans';fill:#ffffff;fill-opacity:1"
         id="path3470" />
      <path
         inkscape:connector-curvature="0"
         d="m 1027.2867,280.52079 q 8.6,0 15.8025,7.095 7.2025,6.9875 7.2025,16.985 0,9.7825 -7.525,17.2 -7.4175,7.4175 -17.63,7.4175 -10.965,0 -18.1675,-7.4175 -7.09498,-7.525 -7.09498,-17.2 0,-10.2125 8.59998,-22.79 l 19.995,-29.5625 7.955,5.4825 -17.5225,24.295 0.215,0.215 q 2.6875,-1.72 8.17,-1.72 z m -2.15,39.13 q 6.235,0 10.6425,-4.3 4.515,-4.3 4.515,-10.6425 0,-6.235 -4.515,-10.535 -4.4075,-4.4075 -10.6425,-4.4075 -6.235,0 -10.75,4.4075 -4.515,4.3 -4.515,10.535 0,6.3425 4.4075,10.6425 4.515,4.3 10.8575,4.3 z"
         style="font-style:normal;font-variant:normal;font-weight:normal;font-stretch:normal;font-size:107.5px;font-family:'Product Sans';-inkscape-font-specification:'Product Sans';fill:#ffffff;fill-opacity:1"
         id="path3472" />
    </g>
  </g>
</svg>
