<?xml version="1.0" encoding="UTF-8" standalone="no"?>
<svg
   xmlns:dc="http://purl.org/dc/elements/1.1/"
   xmlns:cc="http://creativecommons.org/ns#"
   xmlns:rdf="http://www.w3.org/1999/02/22-rdf-syntax-ns#"
   xmlns:svg="http://www.w3.org/2000/svg"
   xmlns="http://www.w3.org/2000/svg"
   xmlns:sodipodi="http://sodipodi.sourceforge.net/DTD/sodipodi-0.dtd"
   xmlns:inkscape="http://www.inkscape.org/namespaces/inkscape"
   id="Layer_4"
   viewBox="0 0 140 28"
   version="1.1"
   inkscape:version="0.91 r13725"
   sodipodi:docname="logo-white.svg"
   width="140"
   height="28">
  <metadata
     id="metadata4274">
    <rdf:RDF>
      <cc:Work
         rdf:about="">
        <dc:format>image/svg+xml</dc:format>
        <dc:type
           rdf:resource="http://purl.org/dc/dcmitype/StillImage" />
        <dc:title></dc:title>
      </cc:Work>
    </rdf:RDF>
  </metadata>
  <defs
     id="defs4272" />
  <sodipodi:namedview
     pagecolor="#ffffff"
     bordercolor="#666666"
     borderopacity="1"
     objecttolerance="10"
     gridtolerance="10"
     guidetolerance="10"
     inkscape:pageopacity="0"
     inkscape:pageshadow="2"
     inkscape:window-width="1366"
     inkscape:window-height="744"
     id="namedview4270"
     showgrid="false"
     inkscape:zoom="3.2093714"
     inkscape:cx="96.962593"
     inkscape:cy="-13.932916"
     inkscape:window-x="0"
     inkscape:window-y="24"
     inkscape:window-maximized="1"
     inkscape:current-layer="layer1" />
  <style
     id="style4242">.st0{fill:#FFFFFF;}</style>
  <g
     inkscape:groupmode="layer"
     id="layer1"
     inkscape:label="Layer 1"
     transform="translate(0,-172)">
    <path
       style="fill:#ffffff"
       inkscape:connector-curvature="0"
       d="m 35.912589,181.35035 c 0,1.42087 -0.417133,2.56798 -1.264436,3.40225 -0.964621,1.00373 -2.216022,1.51211 -3.754202,1.51211 -1.473002,0 -2.724403,-0.50838 -3.754201,-1.53818 -1.029799,-1.01676 -1.551215,-2.29424 -1.551215,-3.79331 0,-1.49907 0.521416,-2.77654 1.551215,-3.79331 1.029798,-1.01676 2.281199,-1.53818 3.754201,-1.53818 0.729984,0 1.433897,0.14339 2.098703,0.43017 0.664807,0.28678 1.19926,0.66481 1.590322,1.14712 l -0.899444,0.89944 c -0.677842,-0.80819 -1.603357,-1.21229 -2.789581,-1.21229 -1.068904,0 -2.007455,0.37802 -2.78958,1.13408 -0.782125,0.75606 -1.173188,1.73371 -1.173188,2.94601 0,1.21229 0.391063,2.18995 1.173188,2.946 0.782125,0.75606 1.70764,1.13408 2.78958,1.13408 1.147118,0 2.085668,-0.37802 2.854758,-1.14711 0.495346,-0.49535 0.782125,-1.18623 0.860338,-2.07264 l -3.715096,0 0,-1.22533 4.953461,0 c 0.03911,0.27375 0.06518,0.52142 0.06518,0.76909 z"
       class="st0"
       id="XMLID_2_" />
    <path
       style="fill:#ffffff"
       inkscape:connector-curvature="0"
       d="m 37.203096,186.0431 0,-10.20673 3.128502,0 c 1.56425,0 2.828686,0.46927 3.767237,1.42086 0.93855,0.95159 1.407825,2.17692 1.407825,3.68903 0,1.5121 -0.469275,2.73743 -1.407825,3.68902 -0.938551,0.95159 -2.189952,1.42086 -3.767237,1.42086 l -3.128502,0 z m 1.316578,-1.25139 1.811924,0 c 1.173187,0 2.111738,-0.33893 2.802615,-1.01677 0.690878,-0.67784 1.029799,-1.61639 1.029799,-2.84172 0,-1.2123 -0.338921,-2.15085 -1.029799,-2.82868 -0.690877,-0.67785 -1.629428,-1.01677 -2.802615,-1.01677 l -1.811924,0 0,7.70394 z"
       class="st0"
       id="XMLID_4_" />
    <path
       style="fill:#ffffff"
       inkscape:connector-curvature="0"
       d="m 56.638913,181.35035 c 0,1.42087 -0.417135,2.56798 -1.264438,3.40225 -0.964619,1.00373 -2.216023,1.51211 -3.754203,1.51211 -1.473001,0 -2.7244,-0.50838 -3.754203,-1.53818 -1.029798,-1.01676 -1.551213,-2.29424 -1.551213,-3.79331 0,-1.49907 0.521415,-2.77654 1.551213,-3.79331 1.029803,-1.01676 2.281202,-1.53818 3.754203,-1.53818 0.729983,0 1.433899,0.14339 2.098703,0.43017 0.664808,0.28678 1.199258,0.66481 1.590325,1.14712 l -0.899444,0.89944 c -0.677843,-0.80819 -1.603359,-1.21229 -2.789584,-1.21229 -1.068905,0 -2.007455,0.37802 -2.789579,1.13408 -0.782124,0.75606 -1.173186,1.73371 -1.173186,2.94601 0,1.21229 0.391062,2.18995 1.173186,2.946 0.782124,0.75606 1.70764,1.13408 2.789579,1.13408 1.147118,0 2.085669,-0.37802 2.854759,-1.14711 0.495348,-0.49535 0.782124,-1.18623 0.860337,-2.07264 l -3.715096,0 0,-1.22533 4.953461,0 c 0.03911,0.27375 0.06518,0.52142 0.06518,0.76909 z"
       class="st0"
       id="XMLID_8_" />
    <path
       style="fill:#ffffff"
       inkscape:connector-curvature="0"
       d="m 61.370768,186.0431 0,-10.20673 3.128501,0 c 1.564252,0 2.82869,0.46927 3.767241,1.42086 0.938551,0.95159 1.407826,2.17692 1.407826,3.68903 0,1.5121 -0.469275,2.73743 -1.407826,3.68902 -0.938551,0.95159 -2.189955,1.42086 -3.767241,1.42086 l -3.128501,0 z m 1.316579,-1.25139 1.811922,0 c 1.17319,0 2.111741,-0.33893 2.802618,-1.01677 0.690876,-0.67784 1.029798,-1.61639 1.029798,-2.84172 0,-1.2123 -0.338922,-2.15085 -1.029798,-2.82868 -0.690877,-0.67785 -1.629428,-1.01677 -2.802618,-1.01677 l -1.811922,0 0,7.70394 z"
       class="st0"
       id="XMLID_10_" />
    <path
       style="fill:#ffffff"
       inkscape:connector-curvature="0"
       d="m 73.962988,186.27774 c -1.05587,0 -1.916207,-0.35196 -2.567977,-1.05587 -0.664809,-0.70391 -0.990692,-1.59032 -0.990692,-2.67226 0,-1.01676 0.325883,-1.89014 0.964619,-2.62012 0.638736,-0.72998 1.459967,-1.09497 2.463696,-1.09497 1.029798,0 1.864063,0.33892 2.489765,1.01676 0.625702,0.67784 0.938551,1.57728 0.938551,2.71137 l -0.01302,0.24767 -5.513984,0 c 0.03911,0.70391 0.273742,1.26444 0.703911,1.66854 0.430168,0.40409 0.93855,0.61266 1.512111,0.61266 0.938546,0 1.577282,-0.4041 1.916204,-1.19926 l 1.17319,0.48231 c -0.23464,0.54749 -0.599629,0.99069 -1.121045,1.35569 -0.547489,0.36499 -1.186225,0.54748 -1.955315,0.54748 z m 1.890136,-4.56239 c -0.02609,-0.4041 -0.208568,-0.78213 -0.547489,-1.14712 -0.338921,-0.36499 -0.834265,-0.54749 -1.499073,-0.54749 -0.482309,0 -0.899444,0.15643 -1.264433,0.45624 -0.35196,0.29981 -0.59963,0.71695 -0.729984,1.22533 l 4.040979,0 z"
       class="st0"
       id="XMLID_13_" />
    <path
       style="fill:#ffffff"
       inkscape:connector-curvature="0"
       d="m 79.998388,186.0431 -2.828686,-6.98698 1.433894,0 2.059601,5.42274 0.02609,0 2.085668,-5.42274 1.394792,0 -2.854758,6.98698 -1.316579,0 z"
       class="st0"
       id="XMLID_16_" />
    <path
       style="fill:#ffffff"
       inkscape:connector-curvature="0"
       d="m 86.242356,186.0431 -1.316579,0 0,-10.20673 5.957191,0 0,1.2514 -4.653646,0 0,3.3501 4.197405,0 0,1.22533 -4.197405,0 0,4.3799 z"
       class="st0"
       id="XMLID_18_" />
    <path
       style="fill:#ffffff"
       inkscape:connector-curvature="0"
       d="m 94.858772,186.27774 c -1.05587,0 -1.916208,-0.35196 -2.567982,-1.05587 -0.664804,-0.70391 -0.990692,-1.59032 -0.990692,-2.67226 0,-1.01676 0.325888,-1.89014 0.964624,-2.62012 0.638736,-0.72998 1.459966,-1.09497 2.463692,-1.09497 1.029802,0 1.864067,0.33892 2.489769,1.01676 0.625697,0.67784 0.938551,1.57728 0.938551,2.71137 l -0.01302,0.24767 -5.513984,0 c 0.03911,0.70391 0.273746,1.26444 0.703915,1.66854 0.430169,0.40409 0.938551,0.61266 1.512107,0.61266 0.938551,0 1.577287,-0.4041 1.916208,-1.19926 l 1.173186,0.48231 c -0.234635,0.54749 -0.599629,0.99069 -1.121045,1.35569 -0.560523,0.36499 -1.199259,0.54748 -1.95531,0.54748 z m 1.877097,-4.56239 c -0.02609,-0.4041 -0.208563,-0.78213 -0.547484,-1.14712 -0.338921,-0.36499 -0.834269,-0.54749 -1.499073,-0.54749 -0.482314,0 -0.899444,0.15643 -1.264438,0.45624 -0.351956,0.29981 -0.59963,0.71695 -0.729984,1.22533 l 4.040979,0 z"
       class="st0"
       id="XMLID_20_" />
    <path
       style="fill:#ffffff"
       inkscape:connector-curvature="0"
       d="m 101.61112,186.27774 c -0.78213,0 -1.42086,-0.19553 -1.929245,-0.57356 -0.508382,-0.37802 -0.886405,-0.86033 -1.121045,-1.42086 l 1.17319,-0.48231 c 0.36499,0.87338 1.00373,1.31658 1.89014,1.31658 0.40409,0 0.74301,-0.0913 1.00372,-0.27374 0.26071,-0.1825 0.39106,-0.41714 0.39106,-0.71695 0,-0.45624 -0.31285,-0.76909 -0.95158,-0.92552 l -1.40783,-0.33892 c -0.4432,-0.11732 -0.873369,-0.32588 -1.264431,-0.65177 -0.404101,-0.31285 -0.599629,-0.74302 -0.599629,-1.29051 0,-0.61266 0.273742,-1.12104 0.82123,-1.49907 0.54749,-0.39106 1.19926,-0.57356 1.94228,-0.57356 0.61266,0 1.17319,0.14339 1.6555,0.41714 0.48231,0.28677 0.83426,0.67784 1.04283,1.19926 l -1.14712,0.46927 c -0.26071,-0.61267 -0.79516,-0.92552 -1.59032,-0.92552 -0.39106,0 -0.71695,0.0782 -0.97766,0.24768 -0.26071,0.15643 -0.40409,0.37803 -0.40409,0.65177 0,0.4041 0.31284,0.66481 0.92551,0.8082 l 1.38176,0.32588 c 0.65177,0.15642 1.14711,0.41713 1.45996,0.78213 0.31285,0.36499 0.46928,0.79516 0.46928,1.2514 0,0.6257 -0.26071,1.14711 -0.76909,1.56425 -0.52142,0.43017 -1.18623,0.63873 -1.99442,0.63873 z"
       class="st0"
       id="XMLID_27_" />
    <path
       style="fill:#ffffff"
       inkscape:connector-curvature="0"
       d="m 108.31133,186.16042 c -0.72999,0 -1.29051,-0.19553 -1.68157,-0.58659 -0.39106,-0.39106 -0.57356,-0.93855 -0.57356,-1.6555 l 0,-3.66295 -1.22533,0 0,-1.19926 1.22533,0 0,-2.13781 1.31657,0 0,2.13781 1.70765,0 0,1.19926 -1.70765,0 0,3.55867 c 0,0.75605 0.31286,1.14712 0.93856,1.14712 0.23464,0 0.4432,-0.0391 0.59962,-0.11732 l 0.45625,1.12104 c -0.28678,0.13036 -0.63874,0.19553 -1.05587,0.19553 z"
       class="st0"
       id="XMLID_29_" />
    <g
       id="XMLID_261_"
       style="fill:#ffffff"
       transform="matrix(0.13035423,0,0,0.13035423,0,174.59801)">
      <path
         id="XMLID_259_"
         class="st0"
         d="M 32.3,0 0,0 92.3,160 108.5,132 Z"
         inkscape:connector-curvature="0"
         style="fill:#ffffff" />
      <path
         id="XMLID_258_"
         class="st0"
         d="M 120.9,91 68.3,0 36.1,0 l 74.3,128.8 10.5,-18.2 c 1.7,-2.8 2.8,-6.2 2.8,-9.8 -0.1,-3.6 -1.1,-6.9 -2.8,-9.8 z"
         inkscape:connector-curvature="0"
         style="fill:#ffffff" />
      <path
         id="XMLID_257_"
         class="st0"
         d="M 56.3,104.1 0.9,200 l 32.3,0 39.3,-68 z"
         inkscape:connector-curvature="0"
         style="fill:#ffffff" />
      <path
         id="XMLID_256_"
         class="st0"
         d="M 74.3,135.3 37,200 l 32.2,0 21.3,-36.8 z"
         inkscape:connector-curvature="0"
         style="fill:#ffffff" />
    </g>
    <g
       transform="matrix(0.13035423,0,0,0.13035423,3.0900371,156.28239)"
       style="font-style:normal;font-weight:normal;font-size:100px;line-height:125%;font-family:sans-serif;letter-spacing:0px;word-spacing:0px;fill:#ffffff;fill-opacity:1;stroke:none;stroke-width:1px;stroke-linecap:butt;stroke-linejoin:miter;stroke-opacity:1"
       id="flowRoot3404">
      <path
         inkscape:connector-curvature="0"
         d="m 233.04312,250.52829 0,0.43 -28.595,33.0025 30.53,43.1075 0,0.43 -12.1475,0 -25.0475,-35.905 -11.825,13.6525 0,22.2525 -9.89,0 0,-76.97 9.89,0 0,39.6675 0.43,0 33.86251,-39.6675 12.79249,0 z"
         style="font-style:normal;font-variant:normal;font-weight:normal;font-stretch:normal;font-size:107.5px;font-family:'Product Sans';-inkscape-font-specification:'Product Sans';fill:#ffffff;fill-opacity:1"
         id="path3444" />
      <path
         inkscape:connector-curvature="0"
         d="m 285.24109,327.49829 -9.46,0 0,-7.31 -0.43,0 q -2.2575,3.7625 -6.88,6.45 -4.6225,2.58 -9.7825,2.58 -9.89,0 -15.05,-6.02 -5.0525,-6.02 -5.0525,-16.125 l 0,-32.25 9.89,0 0,30.6375 q 0,14.7275 13.0075,14.7275 6.1275,0 9.9975,-4.945 3.87,-4.945 3.87,-11.395 l 0,-29.025 9.89,0 0,52.675 z"
         style="font-style:normal;font-variant:normal;font-weight:normal;font-stretch:normal;font-size:107.5px;font-family:'Product Sans';-inkscape-font-specification:'Product Sans';fill:#ffffff;fill-opacity:1"
         id="path3446" />
      <path
         inkscape:connector-curvature="0"
         d="m 313.41785,329.21829 q -8.385,0 -14.0825,-4.8375 -5.59,-4.8375 -5.59,-12.7925 0,-8.6 6.665,-13.4375 6.665,-4.945 16.4475,-4.945 8.7075,0 14.2975,3.225 l 0,-1.505 q 0,-5.805 -3.9775,-9.245 -3.9775,-3.5475 -9.7825,-3.5475 -4.3,0 -7.8475,2.0425 -3.44,2.0425 -4.73,5.59 l -9.03,-3.87 q 1.8275,-4.73 7.2025,-8.7075 5.375,-4.085 14.19,-4.085 10.105,0 16.77,5.9125 6.665,5.9125 6.665,16.6625 l 0,31.82 -9.46,0 0,-7.31 -0.43,0 q -5.9125,9.03 -17.3075,9.03 z m 1.6125,-9.03 q 6.1275,0 11.0725,-4.515 5.0525,-4.6225 5.0525,-10.8575 -4.1925,-3.44 -12.5775,-3.44 -7.2025,0 -10.8575,3.1175 -3.655,3.1175 -3.655,7.31 0,3.87 3.3325,6.1275 3.3325,2.2575 7.6325,2.2575 z"
         style="font-style:normal;font-variant:normal;font-weight:normal;font-stretch:normal;font-size:107.5px;font-family:'Product Sans';-inkscape-font-specification:'Product Sans';fill:#ffffff;fill-opacity:1"
         id="path3448" />
      <path
         inkscape:connector-curvature="0"
         d="m 361.65512,327.49829 -9.89,0 0,-76.97 9.89,0 0,76.97 z"
         style="font-style:normal;font-variant:normal;font-weight:normal;font-stretch:normal;font-size:107.5px;font-family:'Product Sans';-inkscape-font-specification:'Product Sans';fill:#ffffff;fill-opacity:1"
         id="path3450" />
      <path
         inkscape:connector-curvature="0"
         d="m 389.63367,329.21829 q -8.385,0 -14.0825,-4.8375 -5.59,-4.8375 -5.59,-12.7925 0,-8.6 6.665,-13.4375 6.665,-4.945 16.4475,-4.945 8.7075,0 14.2975,3.225 l 0,-1.505 q 0,-5.805 -3.9775,-9.245 -3.9775,-3.5475 -9.7825,-3.5475 -4.3,0 -7.8475,2.0425 -3.44,2.0425 -4.73,5.59 l -9.03,-3.87 q 1.8275,-4.73 7.2025,-8.7075 5.375,-4.085 14.19,-4.085 10.105,0 16.77,5.9125 6.665,5.9125 6.665,16.6625 l 0,31.82 -9.46,0 0,-7.31 -0.43,0 q -5.9125,9.03 -17.3075,9.03 z m 1.6125,-9.03 q 6.1275,0 11.0725,-4.515 5.0525,-4.6225 5.0525,-10.8575 -4.1925,-3.44 -12.5775,-3.44 -7.2025,0 -10.8575,3.1175 -3.655,3.1175 -3.655,7.31 0,3.87 3.3325,6.1275 3.3325,2.2575 7.6325,2.2575 z"
         style="font-style:normal;font-variant:normal;font-weight:normal;font-stretch:normal;font-size:107.5px;font-family:'Product Sans';-inkscape-font-specification:'Product Sans';fill:#ffffff;fill-opacity:1"
         id="path3452" />
      <path
         inkscape:connector-curvature="0"
         d="m 453.42652,327.49829 0,-76.97 9.89,0 0,67.51 33.325,0 0,9.46 -43.215,0 z"
         style="font-style:normal;font-variant:normal;font-weight:normal;font-stretch:normal;font-size:107.5px;font-family:'Product Sans';-inkscape-font-specification:'Product Sans';fill:#ffffff;fill-opacity:1"
         id="path3454" />
      <path
         inkscape:connector-curvature="0"
         d="m 550.42176,327.49829 -9.46,0 0,-7.31 -0.43,0 q -2.2575,3.7625 -6.88,6.45 -4.6225,2.58 -9.7825,2.58 -9.89,0 -15.05,-6.02 -5.0525,-6.02 -5.0525,-16.125 l 0,-32.25 9.89,0 0,30.6375 q 0,14.7275 13.0075,14.7275 6.1275,0 9.9975,-4.945 3.87,-4.945 3.87,-11.395 l 0,-29.025 9.89,0 0,52.675 z"
         style="font-style:normal;font-variant:normal;font-weight:normal;font-stretch:normal;font-size:107.5px;font-family:'Product Sans';-inkscape-font-specification:'Product Sans';fill:#ffffff;fill-opacity:1"
         id="path3456" />
      <path
         inkscape:connector-curvature="0"
         d="m 562.5659,327.49829 0,-52.675 9.46,0 0,7.31 0.43,0 q 2.2575,-3.7625 6.88,-6.3425 4.73,-2.6875 9.3525,-2.6875 12.255,0 16.6625,10.105 6.45,-10.105 18.3825,-10.105 9.3525,0 14.0825,6.02 4.73,5.9125 4.73,16.125 l 0,32.25 -9.89,0 0,-30.745 q 0,-7.955 -2.9025,-11.2875 -2.9025,-3.3325 -8.815,-3.3325 -5.805,0 -9.675,4.945 -3.7625,4.945 -3.7625,11.2875 l 0,29.1325 -9.89,0 0,-30.745 q 0,-7.955 -2.9025,-11.2875 -2.9025,-3.3325 -8.815,-3.3325 -5.805,0 -9.675,4.945 -3.7625,4.945 -3.7625,11.2875 l 0,29.1325 -9.89,0 z"
         style="font-style:normal;font-variant:normal;font-weight:normal;font-stretch:normal;font-size:107.5px;font-family:'Product Sans';-inkscape-font-specification:'Product Sans';fill:#ffffff;fill-opacity:1"
         id="path3458" />
      <path
         inkscape:connector-curvature="0"
         d="m 681.52137,329.21829 q -6.02,0 -10.8575,-2.58 -4.73,-2.58 -7.095,-6.45 l -0.43,0 0.43,7.31 0,23.22 -9.89,0 0,-75.895 9.46,0 0,7.31 0.43,0 q 2.365,-3.87 7.095,-6.45 4.8375,-2.58 10.8575,-2.58 10.2125,0 17.63,8.0625 7.4175,8.0625 7.4175,19.995 0,11.9325 -7.4175,19.995 -7.4175,8.0625 -17.63,8.0625 z m -1.6125,-9.03 q 6.88,0 11.825,-5.16 4.945,-5.2675 4.945,-13.8675 0,-8.6 -4.945,-13.76 -4.945,-5.2675 -11.825,-5.2675 -6.9875,0 -11.9325,5.16 -4.8375,5.16 -4.8375,13.8675 0,8.7075 4.8375,13.8675 4.945,5.16 11.9325,5.16 z"
         style="font-style:normal;font-variant:normal;font-weight:normal;font-stretch:normal;font-size:107.5px;font-family:'Product Sans';-inkscape-font-specification:'Product Sans';fill:#ffffff;fill-opacity:1"
         id="path3460" />
      <path
         inkscape:connector-curvature="0"
         d="m 761.22254,327.49829 -9.46,0 0,-7.31 -0.43,0 q -2.2575,3.7625 -6.88,6.45 -4.6225,2.58 -9.7825,2.58 -9.89,0 -15.05,-6.02 -5.0525,-6.02 -5.0525,-16.125 l 0,-32.25 9.89,0 0,30.6375 q 0,14.7275 13.0075,14.7275 6.1275,0 9.9975,-4.945 3.87,-4.945 3.87,-11.395 l 0,-29.025 9.89,0 0,52.675 z"
         style="font-style:normal;font-variant:normal;font-weight:normal;font-stretch:normal;font-size:107.5px;font-family:'Product Sans';-inkscape-font-specification:'Product Sans';fill:#ffffff;fill-opacity:1"
         id="path3462" />
      <path
         inkscape:connector-curvature="0"
         d="m 783.25668,327.49829 -9.89,0 0,-52.675 9.46,0 0,8.6 0.43,0 q 1.505,-4.3 6.1275,-7.095 4.73,-2.795 9.1375,-2.795 4.4075,0 7.4175,1.29 l -3.7625,9.245 q -1.935,-0.7525 -5.2675,-0.7525 -5.375,0 -9.5675,4.3 -4.085,4.1925 -4.085,11.0725 l 0,28.81 z"
         style="font-style:normal;font-variant:normal;font-weight:normal;font-stretch:normal;font-size:107.5px;font-family:'Product Sans';-inkscape-font-specification:'Product Sans';fill:#ffffff;fill-opacity:1"
         id="path3464" />
      <path
         inkscape:connector-curvature="0"
         d="m 881.295,327.49829 -46.87,0 0,-9.89 q 21.07,-21.1775 26.9825,-27.6275 5.2675,-5.9125 7.095,-8.9225 1.8275,-3.1175 1.8275,-7.6325 0,-4.6225 -3.655,-8.17 -3.655,-3.5475 -9.7825,-3.5475 -5.59,0 -9.03,3.3325 -3.44,3.225 -4.4075,6.9875 l -9.03,-3.655 q 1.8275,-5.805 7.6325,-10.965 5.805,-5.16 15.05,-5.16 10.2125,0 16.77,6.235 6.5575,6.235 6.5575,14.9425 0,10.75 -11.7175,23.005 l -21.5,21.6075 34.0775,0 0,9.46 z"
         style="font-style:normal;font-variant:normal;font-weight:normal;font-stretch:normal;font-size:107.5px;font-family:'Product Sans';-inkscape-font-specification:'Product Sans';fill:#ffffff;fill-opacity:1"
         id="path3466" />
      <path
         inkscape:connector-curvature="0"
         d="m 941.65961,318.14579 q -8.17,11.0725 -21.3925,11.0725 -13.2225,0 -21.3925,-11.0725 -8.17,-11.0725 -8.17,-27.4125 0,-16.4475 8.17,-27.4125 8.17,-11.0725 21.3925,-11.0725 13.2225,0 21.3925,11.0725 8.17,10.965 8.17,27.4125 0,16.34 -8.17,27.4125 z m -21.3925,1.6125 q 8.815,0 14.0825,-8.2775 5.375,-8.2775 5.375,-20.7475 0,-12.5775 -5.375,-20.7475 -5.2675,-8.2775 -14.0825,-8.2775 -8.9225,0 -14.19,8.2775 -5.2675,8.17 -5.2675,20.7475 0,12.47 5.2675,20.7475 5.2675,8.2775 14.19,8.2775 z"
         style="font-style:normal;font-variant:normal;font-weight:normal;font-stretch:normal;font-size:107.5px;font-family:'Product Sans';-inkscape-font-specification:'Product Sans';fill:#ffffff;fill-opacity:1"
         id="path3468" />
      <path
         inkscape:connector-curvature="0"
         d="m 985.83203,327.49829 -9.89,0 0,-61.275 -14.2975,6.235 -3.7625,-8.385 21.6075,-10.105 6.3425,0 0,73.53 z"
         style="font-style:normal;font-variant:normal;font-weight:normal;font-stretch:normal;font-size:107.5px;font-family:'Product Sans';-inkscape-font-specification:'Product Sans';fill:#ffffff;fill-opacity:1"
         id="path3470" />
      <path
         inkscape:connector-curvature="0"
         d="m 1027.2867,280.52079 q 8.6,0 15.8025,7.095 7.2025,6.9875 7.2025,16.985 0,9.7825 -7.525,17.2 -7.4175,7.4175 -17.63,7.4175 -10.965,0 -18.1675,-7.4175 -7.09498,-7.525 -7.09498,-17.2 0,-10.2125 8.59998,-22.79 l 19.995,-29.5625 7.955,5.4825 -17.5225,24.295 0.215,0.215 q 2.6875,-1.72 8.17,-1.72 z m -2.15,39.13 q 6.235,0 10.6425,-4.3 4.515,-4.3 4.515,-10.6425 0,-6.235 -4.515,-10.535 -4.4075,-4.4075 -10.6425,-4.4075 -6.235,0 -10.75,4.4075 -4.515,4.3 -4.515,10.535 0,6.3425 4.4075,10.6425 4.515,4.3 10.8575,4.3 z"
         style="font-style:normal;font-variant:normal;font-weight:normal;font-stretch:normal;font-size:107.5px;font-family:'Product Sans';-inkscape-font-specification:'Product Sans';fill:#ffffff;fill-opacity:1"
         id="path3472" />
    </g>
  </g>
</svg>
